<?xml version="1.0" encoding="utf-8"?>
<!-- Generator: Adobe Illustrator 24.0.0, SVG Export Plug-In . SVG Version: 6.00 Build 0)  -->
<svg version="1.1" id="图层_1" xmlns="http://www.w3.org/2000/svg" xmlns:xlink="http://www.w3.org/1999/xlink" x="0px" y="0px"
	 viewBox="0 0 64 64" style="enable-background:new 0 0 64 64;" xml:space="preserve">
<style type="text/css">
	.st0{fill:#0F283D;}
	.st1{fill:none;stroke:#E8412D;stroke-width:2;stroke-linecap:round;}
</style>
<title>01D3CF4E-DF47-4A66-8EFC-1534563AB815</title>
<g id="Page-1">
	<g id="Icons" transform="translate(-642.000000, -334.000000)">
		<g id="Tederic-Icons_x2F_POSITIVE_x2F_32_x2F_Zoom_x5F_out" transform="translate(642.000000, 334.000000)">
			<path id="Combined-Shape" class="st0" d="M27,0c14.9,0,27,12.1,27,27c0,6.7-2.5,12.9-6.5,17.6l15.9,16c0.4,0.4,0.6,0.9,0.6,1.4
				s-0.2,1-0.6,1.4c-0.8,0.8-2.1,0.8-2.9,0L44.6,47.5C39.9,51.5,33.7,54,27,54C12.1,54,0,41.9,0,27S12.1,0,27,0z M27,4
				C14.3,4,4,14.3,4,27s10.3,23,23,23s23-10.3,23-23S39.7,4,27,4z"/>
			<line id="Path-7-Copy" class="st1" x1="12" y1="27" x2="42" y2="27"/>
		</g>
	</g>
</g>
</svg>
