<?xml version="1.0" encoding="UTF-8"?>
<svg width="86px" height="22px" viewBox="0 0 86 22" version="1.1" xmlns="http://www.w3.org/2000/svg" xmlns:xlink="http://www.w3.org/1999/xlink">
    <title>0B20A08B-D8BC-4418-82DC-7977D63A2F5E</title>
    <defs>
        <polygon id="path-1" points="0.0205821001 0.133081395 17.3471642 0.133081395 17.3471642 20.5116279 0.0205821001 20.5116279"></polygon>
    </defs>
    <g id="Design---Main" stroke="none" stroke-width="1" fill="none" fill-rule="evenodd">
        <g id="01-Home" transform="translate(-651.000000, -2649.000000)">
            <g id="Section_Our-products" transform="translate(130.000000, 2428.000000)">
                <g id="NEO_T" transform="translate(494.000000, 19.000000)">
                    <g id="NEO_logo/White/T" transform="translate(27.000000, 202.000000)">
                        <rect id="Background" x="0" y="0" width="85" height="21"></rect>
                        <g transform="translate(-0.000000, 0.000000)">
                            <polygon id="Fill-1" fill="#FFFFFF" points="12.0140042 0.761274419 12.0140042 13.0318674 3.57749965 0.761274419 -4.79210712e-05 0.761274419 -4.79210712e-05 20.1327977 4.19136857 20.1327977 4.19136857 7.97111163 12.547845 20.1327977 16.1788245 20.1327977 16.1788245 0.761274419"></polygon>
                            <polygon id="Fill-2" fill="#FFFFFF" points="32.2767583 12.1611488 24.3474982 12.1611488 24.3474982 16.3511372 33.9853841 16.3511372 33.2644116 20.1328465 19.9423538 20.1328465 19.9423538 0.76107907 33.8250881 0.76107907 33.1309514 4.54303256 24.3474982 4.54303256 24.3474982 8.37943953 32.9706554 8.37943953"></polygon>
                            <g id="Group-10" transform="translate(36.180409, 0.111129)">
                                <g id="Group-5">
                                    <mask id="mask-2" fill="white">
                                        <use xlink:href="#path-1"></use>
                                    </mask>
                                    <g id="Clip-4"></g>
                                    <path d="M8.69717125,16.7570233 C9.53339394,16.7570233 10.2143524,16.6935349 10.7393277,16.5665581 C11.264303,16.4398256 11.6781015,16.1902674 11.9809626,15.8181279 C12.2833446,15.4467209 12.4925201,14.9297791 12.6082495,14.2675465 C12.7239789,13.6055581 12.7819634,12.7396744 12.7819634,11.6691628 L12.7819634,8.97554651 C12.7819634,7.92383721 12.7239789,7.06210465 12.6082495,6.39083721 C12.4925201,5.72005814 12.2833446,5.20311628 11.9809626,4.84001163 C11.6781015,4.47739535 11.264303,4.22759302 10.7393277,4.09182558 C10.2143524,3.95556977 9.53339394,3.88768605 8.69717125,3.88768605 C7.86046934,3.88768605 7.17543763,3.95166279 6.6415969,4.07815116 C6.10751656,4.20537209 5.68916561,4.45468605 5.38678365,4.8265814 C5.08392248,5.19823256 4.87498661,5.71517442 4.75925722,6.37716279 C4.64328823,7.03963953 4.58578295,7.90552326 4.58578295,8.97554651 L4.58578295,11.6691628 C4.58578295,12.7213605 4.64328823,13.5782093 4.75925722,14.2401977 C4.87498661,14.9024302 5.08392248,15.4193721 5.38678365,15.7910233 C5.68916561,16.1629186 6.10751656,16.4168721 6.6415969,16.5528837 C7.17543763,16.6888953 7.86046934,16.7570233 8.69717125,16.7570233 M8.69717125,20.5116279 C7.02400705,20.5116279 5.63118111,20.3389884 4.51917266,19.994686 C3.40644538,19.6503837 2.5167907,19.1197674 1.84925018,18.4030814 C1.18194926,17.6868837 0.710166314,16.775093 0.43438055,15.668686 C0.158115574,14.5625233 0.0205821001,13.247093 0.0205821001,11.7236163 L0.0205821001,8.89398837 C0.0205821001,7.42472093 0.154042283,6.14152326 0.42096265,5.04390698 C0.687883016,3.94677907 1.15511346,3.03547674 1.82265398,2.30975581 C2.4901945,1.58427907 3.37984919,1.04023256 4.49233686,0.677127907 C5.60458492,0.314511628 7.00603665,0.133081395 8.69717125,0.133081395 C10.3698562,0.133081395 11.7581297,0.30572093 12.8619915,0.650023256 C13.9651346,0.994813953 14.8509556,1.52518605 15.5184961,2.24162791 C16.185797,2.95831395 16.6571008,3.86522093 16.9333658,4.96234884 C17.2089119,6.05996512 17.3471642,7.37051163 17.3471642,8.89398837 L17.3471642,11.7236163 C17.3471642,13.2111977 17.213704,14.5034302 16.9467837,15.6008023 C16.6796237,16.6984186 16.2167061,17.6097209 15.5585102,18.3349535 C14.8998351,19.0606744 14.0140141,19.6047209 12.9020056,19.9673372 C11.789518,20.3301977 10.3880662,20.5116279 8.69717125,20.5116279" id="Fill-3" fill="#FFFFFF" mask="url(#mask-2)"></path>
                                </g>
                                <path d="M26.931043,10.7947326 C26.931043,11.484314 26.7664341,12.0012558 26.4369767,12.3458023 C26.1075194,12.6901047 25.5693658,12.8627442 24.8220366,12.8627442 C24.0919591,12.8627442 23.5624313,12.6901047 23.2334531,12.3458023 C22.9037562,12.0012558 22.7396265,11.484314 22.7396265,10.7947326 C22.7396265,10.0875698 22.9037562,9.56134884 23.2334531,9.21680233 C23.5624313,8.8725 24.0919591,8.69986047 24.8220366,8.69986047 C25.5693658,8.69986047 26.1075194,8.8725 26.4369767,9.21680233 C26.7664341,9.56134884 26.931043,10.0875698 26.931043,10.7947326" id="Fill-6" fill="#E8412D"></path>
                                <polygon id="Fill-8" fill="#FFFFFF" points="48.3420099 0.650047674 47.621277 4.43175698 41.9078872 4.43175698 41.9078872 20.0218151 37.5029824 20.0218151 37.5029824 4.43175698 31.1488879 4.43175698 31.8432643 0.650047674"></polygon>
                            </g>
                        </g>
                    </g>
                </g>
            </g>
        </g>
    </g>
</svg>