<?xml version="1.0" encoding="UTF-8"?>
<svg width="86px" height="23px" viewBox="0 0 86 23" version="1.1" xmlns="http://www.w3.org/2000/svg" xmlns:xlink="http://www.w3.org/1999/xlink">
    <title>C9A56310-C16C-493D-A7D9-594126863F0B</title>
    <defs>
        <polygon id="path-1" points="0.0204124508 0.133081395 17.4068196 0.133081395 17.4068196 20.5116279 0.0204124508 20.5116279"></polygon>
        <polygon id="path-3" points="0.0034140966 0.161675581 14.0946891 0.161675581 14.0946891 19.533443 0.0034140966 19.533443"></polygon>
    </defs>
    <g id="Design---Main" stroke="none" stroke-width="1" fill="none" fill-rule="evenodd">
        <g id="01-Home" transform="translate(-651.000000, -2959.000000)">
            <g id="Section_Our-products" transform="translate(130.000000, 2428.000000)">
                <g id="NEO_E" transform="translate(494.000000, 321.000000)">
                    <g id="NEO_logo/Blue/E" transform="translate(27.000000, 210.000000)">
                        <rect id="Background" x="0" y="0" width="84" height="21"></rect>
                        <g transform="translate(0.000000, 0.000000)">
                            <polygon id="Fill-1" fill="#0F283D" points="12.055103 0.761274419 12.055103 13.0321116 3.5898264 0.761274419 -2.40429338e-05 0.761274419 -2.40429338e-05 20.1330419 4.20580637 20.1330419 4.20580637 7.97111163 12.5907795 20.1330419 16.2342457 20.1330419 16.2342457 0.761274419"></polygon>
                            <polygon id="Fill-2" fill="#0F283D" points="32.3875148 12.1612465 24.4312272 12.1612465 24.4312272 16.3512349 34.1020165 16.3512349 33.378805 20.1329442 20.0109338 20.1329442 20.0109338 0.761176744 33.9414097 0.761176744 33.2446454 4.54313023 24.4312272 4.54313023 24.4312272 8.37929302 33.0840386 8.37929302"></polygon>
                            <g id="Group-11" transform="translate(36.304830, 0.111129)">
                                <g id="Group-5">
                                    <mask id="mask-2" fill="white">
                                        <use xlink:href="#path-1"></use>
                                    </mask>
                                    <g id="Clip-4"></g>
                                    <path d="M8.72708007,16.7570233 C9.56617846,16.7570233 10.2492382,16.6937791 10.7762593,16.5665581 C11.30304,16.4398256 11.718021,16.1902674 12.0219237,15.8183721 C12.325586,15.4467209 12.5352404,14.9297791 12.6516082,14.2675465 C12.7674951,13.6055581 12.825679,12.7396744 12.825679,11.6691628 L12.825679,8.97554651 C12.825679,7.92383721 12.7674951,7.06210465 12.6516082,6.39083721 C12.5352404,5.72005814 12.325586,5.20311628 12.0219237,4.84001163 C11.718021,4.47739535 11.30304,4.22783721 10.7762593,4.09182558 C10.2492382,3.95581395 9.56617846,3.88768605 8.72708007,3.88768605 C7.88726039,3.88768605 7.19987292,3.95166279 6.66419635,4.07815116 C6.12827936,4.20537209 5.70848973,4.45493023 5.40530834,4.8265814 C5.10116522,5.19847674 4.89151084,5.7154186 4.77538347,6.37740698 C4.6592561,7.03963953 4.60155306,7.90552326 4.60155306,8.97554651 L4.60155306,11.6691628 C4.60155306,12.7213605 4.6592561,13.5784535 4.77538347,14.2401977 C4.89151084,14.9026744 5.10116522,15.4196163 5.40530834,15.7910233 C5.70848973,16.1631628 6.12827936,16.4168721 6.66419635,16.5528837 C7.19987292,16.6888953 7.88726039,16.7570233 8.72708007,16.7570233 M8.72708007,20.5116279 C7.048162,20.5116279 5.65030583,20.3389884 4.53447327,19.994686 C3.41815986,19.6503837 2.5252053,19.1197674 1.85560959,18.4030814 C1.18577345,17.6868837 0.712368086,16.7753372 0.435874347,15.668686 C0.15865932,14.5625233 0.0204124508,13.247093 0.0204124508,11.7236163 L0.0204124508,8.89398837 C0.0204124508,7.42472093 0.154572021,6.14176744 0.422410304,5.04415116 C0.690248587,3.94702326 1.15884537,3.03547674 1.82892193,2.30975581 C2.49851764,1.58452326 3.3914722,1.04023256 4.50754519,0.677127907 C5.62361818,0.314755814 7.02988937,0.133081395 8.72708007,0.133081395 C10.4052769,0.133081395 11.7983244,0.30572093 12.9062228,0.650023256 C14.0131595,0.994813953 14.9020268,1.52543023 15.5716225,2.24162791 C16.2412182,2.95855814 16.7143831,3.86522093 16.9913577,4.96259302 C17.2680919,6.0602093 17.4068196,7.37051163 17.4068196,8.89398837 L17.4068196,11.7236163 C17.4068196,13.2111977 17.27266,14.5034302 17.0048218,15.6008023 C16.736743,16.6984186 16.2722336,17.6097209 15.6117742,18.3349535 C14.9508339,19.0606744 14.0619667,19.6049651 12.9463745,19.9675814 C11.8298207,20.3301977 10.4235495,20.5116279 8.72708007,20.5116279" id="Fill-3" fill="#0F283D" mask="url(#mask-2)"></path>
                                </g>
                                <path d="M27.0236565,10.7948547 C27.0236565,11.484436 26.8582411,12.0013779 26.5278912,12.3456802 C26.1970605,12.6899826 25.6572966,12.8626221 24.9071571,12.8626221 C24.1745689,12.8626221 23.6434605,12.6899826 23.3131106,12.3456802 C22.9825202,12.0013779 22.8178261,11.484436 22.8178261,10.7948547 C22.8178261,10.0874477 22.9825202,9.56147093 23.3131106,9.21692442 C23.6434605,8.87237791 24.1745689,8.69973837 24.9071571,8.69973837 C25.6572966,8.69973837 26.1970605,8.87237791 26.5278912,9.21692442 C26.8582411,9.56147093 27.0236565,10.0874477 27.0236565,10.7948547" id="Fill-6" fill="#E8412D"></path>
                                <g id="Group-10" transform="translate(32.457961, 0.488372)">
                                    <mask id="mask-4" fill="white">
                                        <use xlink:href="#path-3"></use>
                                    </mask>
                                    <g id="Clip-9"></g>
                                    <polygon id="Fill-8" fill="#0F283D" mask="url(#mask-4)" points="12.3802356 11.5617453 4.42370748 11.5617453 4.42370748 15.7517337 14.0947372 15.7517337 13.3715257 19.533443 0.0034140966 19.533443 0.0034140966 0.161675581 13.9341304 0.161675581 13.2371257 3.94362907 4.42370748 3.94362907 4.42370748 7.77979186 13.0765189 7.77979186"></polygon>
                                </g>
                            </g>
                        </g>
                    </g>
                </g>
            </g>
        </g>
    </g>
</svg>