<?xml version="1.0" encoding="UTF-8"?>
<svg width="90px" height="22px" viewBox="0 0 90 22" version="1.1" xmlns="http://www.w3.org/2000/svg" xmlns:xlink="http://www.w3.org/1999/xlink">
    <title>A901EBC2-CB0F-49C9-9129-B8D80D3614F9</title>
    <defs>
        <polygon id="path-1" points="0.0206136839 0.133081395 17.3737839 0.133081395 17.3737839 20.5116279 0.0206136839 20.5116279"></polygon>
        <polygon id="path-3" points="0.00379157398 0.161602326 19.1748055 0.161602326 19.1748055 19.533614 0.00379157398 19.533614"></polygon>
    </defs>
    <g id="Design---Main" stroke="none" stroke-width="1" fill="none" fill-rule="evenodd">
        <g id="01-Home" transform="translate(-1111.000000, -2960.000000)">
            <g id="Section_Our-products" transform="translate(130.000000, 2428.000000)">
                <g id="NEO_M" transform="translate(954.000000, 310.000000)">
                    <g id="NEO_logo/White/M" transform="translate(27.000000, 222.000000)">
                        <rect id="Background" x="0" y="0" width="89" height="21"></rect>
                        <g transform="translate(0.000000, 0.000000)">
                            <polygon id="Fill-1" fill="#FFFFFF" points="12.03244 0.761274419 12.03244 13.0321116 3.58298942 0.761274419 -4.79946073e-05 0.761274419 -4.79946073e-05 20.1330419 4.19780034 20.1330419 4.19780034 7.97111163 12.5671 20.1330419 16.2034114 20.1330419 16.2034114 0.761274419"></polygon>
                            <polygon id="Fill-2" fill="#FFFFFF" points="32.3260479 12.1612465 24.3848601 12.1612465 24.3848601 16.3512349 34.0372956 16.3512349 33.3154567 20.1329442 19.9729558 20.1329442 19.9729558 0.761176744 33.8769936 0.761176744 33.1817917 4.54313023 24.3848601 4.54313023 24.3848601 8.37929302 33.0212497 8.37929302"></polygon>
                            <g id="Group-11" transform="translate(36.235929, 0.111129)">
                                <g id="Group-5">
                                    <mask id="mask-2" fill="white">
                                        <use xlink:href="#path-1"></use>
                                    </mask>
                                    <g id="Clip-4"></g>
                                    <path d="M8.71051729,16.7570233 C9.54802319,16.7570233 10.2297866,16.6937791 10.7558075,16.5665581 C11.2815884,16.4398256 11.6957819,16.1902674 11.9991078,15.8183721 C12.3021937,15.4467209 12.5114502,14.9297791 12.6275972,14.2675465 C12.7435041,13.6055581 12.8015776,12.7396744 12.8015776,11.6691628 L12.8015776,8.97554651 C12.8015776,7.92383721 12.7435041,7.06210465 12.6275972,6.39083721 C12.5114502,5.72005814 12.3021937,5.20311628 11.9991078,4.84001163 C11.6957819,4.47739535 11.2815884,4.22783721 10.7558075,4.09182558 C10.2297866,3.95581395 9.54802319,3.88768605 8.71051729,3.88768605 C7.87229147,3.88768605 7.18644853,3.95166279 6.65178861,4.07815116 C6.11688871,4.20537209 5.69789579,4.45493023 5.39504981,4.8265814 C5.09148392,5.19847674 4.88246741,5.7154186 4.76656043,6.37740698 C4.65041348,7.03963953 4.59281995,7.90552326 4.59281995,8.97554651 L4.59281995,11.6691628 C4.59281995,12.7213605 4.65041348,13.5784535 4.76656043,14.2401977 C4.88246741,14.9026744 5.09148392,15.4196163 5.39504981,15.7910233 C5.69789579,16.1631628 6.11688871,16.4168721 6.65178861,16.5528837 C7.18644853,16.6888953 7.87229147,16.7570233 8.71051729,16.7570233 M8.71051729,20.5116279 C7.03478557,20.5116279 5.63982231,20.3389884 4.52586748,19.994686 C3.41167267,19.6503837 2.52065278,19.1197674 1.8520879,18.4030814 C1.18352302,17.6868837 0.711016111,16.7753372 0.435047118,15.668686 C0.158358207,14.5625233 0.0206136839,13.247093 0.0206136839,11.7236163 L0.0206136839,8.89398837 C0.0206136839,7.42472093 0.154278665,6.14176744 0.421608628,5.04415116 C0.688938591,3.94702326 1.15664604,3.03547674 1.82545089,2.30975581 C2.49401577,1.58452326 3.38503566,1.04023256 4.4989905,0.677127907 C5.61318531,0.314755814 7.0167876,0.133081395 8.71051729,0.133081395 C10.3857691,0.133081395 11.7759329,0.30572093 12.8817286,0.650023256 C13.9865645,0.994813953 14.8737448,1.52543023 15.5420697,2.24162791 C16.2103946,2.95855814 16.6826615,3.86522093 16.9593505,4.96259302 C17.2353194,6.0602093 17.3737839,7.37051163 17.3737839,8.89398837 L17.3737839,11.7236163 C17.3737839,13.2111977 17.2401189,14.5034302 16.972549,15.6008023 C16.705219,16.6984186 16.2413511,17.6097209 15.5823852,18.3349535 C14.9224593,19.0606744 14.035519,19.6049651 12.9218041,19.9675814 C11.8073693,20.3301977 10.403767,20.5116279 8.71051729,20.5116279" id="Fill-3" fill="#FFFFFF" mask="url(#mask-2)"></path>
                                </g>
                                <path d="M26.9723694,10.7948547 C26.9723694,11.484436 26.8072679,12.0013779 26.477545,12.3456802 C26.1475821,12.6899826 25.6086026,12.8626221 24.8601267,12.8626221 C24.1289289,12.8626221 23.5985885,12.6899826 23.2688655,12.3456802 C22.9389026,12.0013779 22.7745211,11.484436 22.7745211,10.7948547 C22.7745211,10.0874477 22.9389026,9.56147093 23.2688655,9.21692442 C23.5985885,8.87237791 24.1289289,8.69973837 24.8601267,8.69973837 C25.6086026,8.69973837 26.1475821,8.87237791 26.477545,9.21692442 C26.8072679,9.56147093 26.9723694,10.0874477 26.9723694,10.7948547" id="Fill-6" fill="#E8412D"></path>
                                <g id="Group-10" transform="translate(32.396360, 0.488372)">
                                    <mask id="mask-4" fill="white">
                                        <use xlink:href="#path-3"></use>
                                    </mask>
                                    <g id="Clip-9"></g>
                                    <polygon id="Fill-8" fill="#FFFFFF" mask="url(#mask-4)" points="7.81131432 14.1192767 4.14788595 6.90919535 4.14788595 19.533614 0.00379157398 19.533614 0.00379157398 0.161602326 4.70942285 0.161602326 9.68286404 10.0381953 14.4957633 0.161602326 19.1749975 0.161602326 19.1749975 19.533614 15.0306632 19.533614 15.0306632 6.77318372 11.3672348 14.1192767"></polygon>
                                </g>
                            </g>
                        </g>
                    </g>
                </g>
            </g>
        </g>
    </g>
</svg>