<?xml version="1.0" encoding="UTF-8"?>
<svg width="87px" height="22px" viewBox="0 0 87 22" version="1.1" xmlns="http://www.w3.org/2000/svg" xmlns:xlink="http://www.w3.org/1999/xlink">
    <title>9FCA2431-1DD2-4B28-B991-C635C756E7E2</title>
    <defs>
        <polygon id="path-1" points="0.0205821001 0.133081395 17.3471642 0.133081395 17.3471642 20.5116279 0.0205821001 20.5116279"></polygon>
        <polygon id="path-3" points="0.00385764623 0.161675581 16.2622551 0.161675581 16.2622551 19.5336872 0.00385764623 19.5336872"></polygon>
    </defs>
    <g id="Design---Main" stroke="none" stroke-width="1" fill="none" fill-rule="evenodd">
        <g id="01-Home" transform="translate(-1111.000000, -2649.000000)">
            <g id="Section_Our-products" transform="translate(130.000000, 2428.000000)">
                <g id="NEO_H" transform="translate(954.000000, 0.000000)">
                    <g id="NEO_logo/White/H" transform="translate(27.000000, 221.000000)">
                        <rect id="Background" x="0" y="0" width="85" height="21"></rect>
                        <g id="NEO_logo/White/T" transform="translate(-0.000000, 0.000000)">
                            <polygon id="Fill-1" fill="#FFFFFF" points="12.0140042 0.761274419 12.0140042 13.0321116 3.57749965 0.761274419 -4.79210712e-05 0.761274419 -4.79210712e-05 20.1330419 4.19136857 20.1330419 4.19136857 7.97111163 12.547845 20.1330419 16.1785849 20.1330419 16.1785849 0.761274419"></polygon>
                            <polygon id="Fill-2" fill="#FFFFFF" points="32.2765187 12.1612465 24.3474982 12.1612465 24.3474982 16.3512349 33.9851445 16.3512349 33.2644116 20.1329442 19.9423538 20.1329442 19.9423538 0.761176744 33.8250881 0.761176744 33.1309514 4.54313023 24.3474982 4.54313023 24.3474982 8.37929302 32.9706554 8.37929302"></polygon>
                            <g id="Group-11" transform="translate(36.180409, 0.111129)">
                                <g id="Group-5">
                                    <mask id="mask-2" fill="white">
                                        <use xlink:href="#path-1"></use>
                                    </mask>
                                    <g id="Clip-4"></g>
                                    <path d="M8.69717125,16.7570233 C9.53339394,16.7570233 10.2141128,16.6937791 10.7393277,16.5665581 C11.264303,16.4398256 11.6778619,16.1902674 11.980723,15.8183721 C12.2833446,15.4467209 12.4922805,14.9297791 12.6082495,14.2675465 C12.7239789,13.6055581 12.7819634,12.7396744 12.7819634,11.6691628 L12.7819634,8.97554651 C12.7819634,7.92383721 12.7239789,7.06210465 12.6082495,6.39083721 C12.4922805,5.72005814 12.2833446,5.20311628 11.980723,4.84001163 C11.6778619,4.47739535 11.264303,4.22783721 10.7393277,4.09182558 C10.2141128,3.95581395 9.53339394,3.88768605 8.69717125,3.88768605 C7.86022974,3.88768605 7.17543763,3.95166279 6.6415969,4.07815116 C6.10751656,4.20537209 5.68916561,4.45493023 5.38678365,4.8265814 C5.08368288,5.19847674 4.87498661,5.7154186 4.75925722,6.37740698 C4.64328823,7.03963953 4.58578295,7.90552326 4.58578295,8.97554651 L4.58578295,11.6691628 C4.58578295,12.7213605 4.64328823,13.5784535 4.75925722,14.2401977 C4.87498661,14.9026744 5.08368288,15.4196163 5.38678365,15.7910233 C5.68916561,16.1631628 6.10751656,16.4168721 6.6415969,16.5528837 C7.17543763,16.6888953 7.86022974,16.7570233 8.69717125,16.7570233 M8.69717125,20.5116279 C7.02400705,20.5116279 5.63118111,20.3389884 4.51893305,19.994686 C3.40644538,19.6503837 2.5167907,19.1197674 1.84925018,18.4030814 C1.18170965,17.6868837 0.709926709,16.7753372 0.43438055,15.668686 C0.158115574,14.5625233 0.0205821001,13.247093 0.0205821001,11.7236163 L0.0205821001,8.89398837 C0.0205821001,7.42472093 0.154042283,6.14176744 0.42096265,5.04415116 C0.687883016,3.94702326 1.15487385,3.03547674 1.82265398,2.30975581 C2.4901945,1.58452326 3.37984919,1.04023256 4.49209725,0.677127907 C5.60458492,0.314755814 7.00603665,0.133081395 8.69717125,0.133081395 C10.3698562,0.133081395 11.7578901,0.30572093 12.8619915,0.650023256 C13.9651346,0.994813953 14.8509556,1.52543023 15.5182565,2.24162791 C16.1855574,2.95855814 16.6571008,3.86522093 16.9333658,4.96259302 C17.2089119,6.0602093 17.3471642,7.37051163 17.3471642,8.89398837 L17.3471642,11.7236163 C17.3471642,13.2111977 17.213704,14.5034302 16.946544,15.6008023 C16.6796237,16.6984186 16.2164665,17.6097209 15.5585102,18.3349535 C14.8995955,19.0606744 14.0140141,19.6049651 12.9020056,19.9675814 C11.7892784,20.3301977 10.3878266,20.5116279 8.69717125,20.5116279" id="Fill-3" fill="#FFFFFF" mask="url(#mask-2)"></path>
                                </g>
                                <path d="M26.931043,10.7948547 C26.931043,11.484436 26.7661945,12.0013779 26.4369767,12.3456802 C26.1075194,12.6899826 25.5693658,12.8626221 24.8220366,12.8626221 C24.0919591,12.8626221 23.5624313,12.6899826 23.2332135,12.3456802 C22.9037562,12.0013779 22.7396265,11.484436 22.7396265,10.7948547 C22.7396265,10.0874477 22.9037562,9.56147093 23.2332135,9.21692442 C23.5624313,8.87237791 24.0919591,8.69973837 24.8220366,8.69973837 C25.5693658,8.69973837 26.1075194,8.87237791 26.4369767,9.21692442 C26.7661945,9.56147093 26.931043,10.0874477 26.931043,10.7948547" id="Fill-6" fill="#E8412D"></path>
                                <g id="Group-10" transform="translate(32.346723, 0.488372)">
                                    <mask id="mask-4" fill="white">
                                        <use xlink:href="#path-3"></use>
                                    </mask>
                                    <g id="Clip-9"></g>
                                    <polygon id="Fill-8" fill="#FFFFFF" mask="url(#mask-4)" points="16.2622791 0.161675581 16.2622791 19.5336872 11.8571346 19.5336872 11.8571346 11.6433035 4.40876251 11.6433035 4.40876251 19.5336872 0.00385764623 19.5336872 0.00385764623 0.161675581 4.40876251 0.161675581 4.40876251 7.69823372 11.8571346 7.69823372 11.8571346 0.161675581"></polygon>
                                </g>
                            </g>
                        </g>
                    </g>
                </g>
            </g>
        </g>
    </g>
</svg>