<?xml version="1.0" encoding="UTF-8"?>
<svg width="22px" height="22px" viewBox="0 0 22 22" version="1.1" xmlns="http://www.w3.org/2000/svg" xmlns:xlink="http://www.w3.org/1999/xlink">
    <title>028C0C21-F87C-489B-AF98-5DB917446511</title>
    <defs>
        <path d="M15.0665213,7.10542736e-15 C15.5865844,7.10542736e-15 16.0081788,0.42824937 16.0081788,0.956521739 L16.008,1.913 L17.891494,1.91304348 C19.4516834,1.91304348 20.7164667,3.19779159 20.7164667,4.7826087 L20.7164667,13.066087 L20.7157694,13.0862612 C21.3111796,13.9954626 21.6581243,15.0870099 21.6581243,16.2608696 C21.6581243,17.7829816 21.0628639,19.2427519 20.0032936,20.3190476 C18.9437233,21.3953434 17.5066376,22 16.0081788,22 C14.8530838,22 13.7789487,21.6478977 12.8841189,21.043591 L2.82497274,21.0434783 C1.26478338,21.0434783 3.94528854e-12,19.7587302 3.94528854e-12,18.173913 L3.94528854e-12,4.7826087 C3.94528854e-12,3.19779159 1.26478338,1.91304348 2.82497274,1.91304348 L4.708,1.913 L4.7082879,0.956521739 C4.7082879,0.42824937 5.12988235,7.10542736e-15 5.64994547,7.10542736e-15 C6.17000859,7.10542736e-15 6.59160305,0.42824937 6.59160305,0.956521739 L6.591,1.913 L14.124,1.913 L14.1248637,0.956521739 C14.1248637,0.42824937 14.5464581,7.10542736e-15 15.0665213,7.10542736e-15 Z M16.0081788,12.4347826 C13.9279264,12.4347826 12.2415485,14.1477801 12.2415485,16.2608696 C12.2415485,18.373959 13.9279264,20.0869565 16.0081788,20.0869565 C18.0884313,20.0869565 19.7748092,18.373959 19.7748092,16.2608696 C19.7748092,14.1477801 18.0884313,12.4347826 16.0081788,12.4347826 Z M18.8331516,8.60869565 L1.88331516,8.60869565 L1.88331516,18.173913 C1.88331516,18.7021854 2.30490962,19.1304348 2.82497274,19.1304348 L11.1145011,19.131147 C10.6335244,18.2868364 10.3582334,17.3065093 10.3582334,16.2608696 C10.3582334,13.0912353 12.8878001,10.5217391 16.0081788,10.5217391 C17.0374617,10.5217391 18.0024605,10.8013171 18.8335916,11.2897912 L18.8331516,8.60869565 Z M18.5600709,14.6252174 C18.9293157,15.0002908 18.9293157,15.6084049 18.5600709,15.9834783 L15.7350981,18.8530435 C15.5573896,19.0320914 15.3168167,19.1319047 15.0665213,19.1304508 C14.8162259,19.1319047 14.5756529,19.0320914 14.3979444,18.8530435 L13.4562868,17.8965217 C13.087042,17.5214484 13.087042,16.9133343 13.4562868,16.5382609 C13.8255316,16.1631875 14.4241957,16.1631875 14.7934406,16.5382609 L15.0665213,16.8252174 L17.2229171,14.6252174 C17.5921619,14.250144 18.1908261,14.250144 18.5600709,14.6252174 Z M5.64994547,15.3043478 C6.17000859,15.3043478 6.59160305,15.7325972 6.59160305,16.2608696 C6.59160305,16.7891419 6.17000859,17.2173913 5.64994547,17.2173913 C5.12988235,17.2173913 4.7082879,16.7891419 4.7082879,16.2608696 C4.7082879,15.7325972 5.12988235,15.3043478 5.64994547,15.3043478 Z M5.64994547,10.5217391 C6.17000859,10.5217391 6.59160305,10.9499885 6.59160305,11.4782609 C6.59160305,12.0065332 6.17000859,12.4347826 5.64994547,12.4347826 C5.12988235,12.4347826 4.7082879,12.0065332 4.7082879,11.4782609 C4.7082879,10.9499885 5.12988235,10.5217391 5.64994547,10.5217391 Z M10.3582334,10.5217391 C10.8782965,10.5217391 11.2998909,10.9499885 11.2998909,11.4782609 C11.2998909,12.0065332 10.8782965,12.4347826 10.3582334,12.4347826 C9.83817025,12.4347826 9.41657579,12.0065332 9.41657579,11.4782609 C9.41657579,10.9499885 9.83817025,10.5217391 10.3582334,10.5217391 Z M4.708,3.826 L2.82497274,3.82608696 C2.30490962,3.82608696 1.88331516,4.25433633 1.88331516,4.7826087 L1.88331516,6.69565217 L18.8331516,6.69565217 L18.8331516,4.7826087 C18.8331516,4.25433633 18.4115571,3.82608696 17.891494,3.82608696 L16.008,3.826 L16.0081788,4.7826087 C16.0081788,5.31088107 15.5865844,5.73913043 15.0665213,5.73913043 C14.5464581,5.73913043 14.1248637,5.31088107 14.1248637,4.7826087 L14.124,3.826 L6.591,3.826 L6.59160305,4.7826087 C6.59160305,5.31088107 6.17000859,5.73913043 5.64994547,5.73913043 C5.12988235,5.73913043 4.7082879,5.31088107 4.7082879,4.7826087 L4.708,3.826 Z" id="path-1"></path>
    </defs>
    <g id="Page-1" stroke="none" stroke-width="1" fill="none" fill-rule="evenodd">
        <g id="Icons" transform="translate(-318.000000, -492.000000)">
            <g id="ICONS/Calendar" transform="translate(318.000000, 492.000000)">
                <mask id="mask-2" fill="white">
                    <use xlink:href="#path-1"></use>
                </mask>
                <use id="Combined-Shape" fill="#0F283D" fill-rule="nonzero" xlink:href="#path-1"></use>
                <g id="COLOR/-Tederic-Red" mask="url(#mask-2)" fill="#0F283D">
                    <g transform="translate(-1.000000, -1.000000)" id="Rectangle">
                        <rect x="0" y="0" width="24" height="24"></rect>
                    </g>
                </g>
            </g>
        </g>
    </g>
</svg>