<?xml version="1.0" encoding="UTF-8"?>
<svg width="15px" height="22px" viewBox="0 0 15 22" version="1.1" xmlns="http://www.w3.org/2000/svg" xmlns:xlink="http://www.w3.org/1999/xlink">
    <title>EBF83D10-2350-4AC6-8755-174F3EDE15AA</title>
    <defs>
        <path d="M7.5,0 C3.36725,0 0,3.29200158 0,7.33239642 C0,8.97646634 0.95995,10.9394466 1.58595,12.0754792 L6.83595,21.6075946 C6.9658325,21.8491433 7.2217,22 7.5,22 C7.7783,22 8.034175,21.8491506 8.16405,21.6075946 L13.41405,12.0754792 C14.040025,10.9393489 15,8.97631969 15,7.33337407 C15,3.29200158 11.63275,0.000977652855 7.5,0.000977652855 L7.5,0 Z M7.5,1.46647928 C10.82225,1.46647928 13.5,4.08438922 13.5,7.33239642 C13.5,8.31576854 12.6455,10.3645867 12.08595,11.3803681 L7.49995,19.7065486 L2.91395,11.3813457 C2.354375,10.3655155 1.4999,8.31664843 1.4999,7.33337407 C1.4999,4.08536687 4.17765,1.46745694 7.4999,1.46745694 L7.5,1.46647928 Z M7.5,3.42178499 C5.2998,3.42178499 3.5,5.1813646 3.5,7.33239642 C3.5,9.48342823 5.2998,11.2430078 7.5,11.2430078 C9.7002,11.2430078 11.5,9.48342823 11.5,7.33239642 C11.5,5.1813646 9.7002,3.42178499 7.5,3.42178499 Z M7.5,4.88826428 C8.88965,4.88826428 10,5.97380113 10,7.33239642 C10,8.69099171 8.88965,9.77652855 7.5,9.77652855 C6.11035,9.77652855 5,8.69099171 5,7.33239642 C5,5.97380113 6.11035,4.88826428 7.5,4.88826428 Z" id="path-1"></path>
    </defs>
    <g id="Page-1" stroke="none" stroke-width="1" fill="none" fill-rule="evenodd">
        <g id="Icons" transform="translate(-498.000000, -492.000000)">
            <g id="ICONS/Map-Location" transform="translate(498.000000, 492.000000)">
                <mask id="mask-2" fill="white">
                    <use xlink:href="#path-1"></use>
                </mask>
                <use id="Shape" fill="#0F283D" fill-rule="nonzero" xlink:href="#path-1"></use>
                <g id="COLOR/-Tederic-Red" mask="url(#mask-2)" fill="#E8412D">
                    <g transform="translate(-5.000000, -1.000000)" id="Rectangle">
                        <rect x="0" y="0" width="24" height="24"></rect>
                    </g>
                </g>
            </g>
        </g>
    </g>
</svg>