<?xml version="1.0" encoding="UTF-8"?>
<svg width="20px" height="20px" viewBox="0 0 20 20" version="1.1" xmlns="http://www.w3.org/2000/svg" xmlns:xlink="http://www.w3.org/1999/xlink">
    <title>C6E80345-F78B-45A2-B7CE-5FAAAAD4DFDF</title>
    <defs>
        <path d="M10,0 C10.5128358,0 10.9355072,0.38604019 10.9932723,0.883378875 L11,1 L11,9 L19,9 C19.5522847,9 20,9.44771525 20,10 C20,10.5128358 19.6139598,10.9355072 19.1166211,10.9932723 L19,11 L11,11 L11,19 C11,19.5522847 10.5522847,20 10,20 C9.48716416,20 9.06449284,19.6139598 9.00672773,19.1166211 L9,19 L9,11 L1,11 C0.44771525,11 0,10.5522847 0,10 C0,9.48716416 0.38604019,9.06449284 0.883378875,9.00672773 L1,9 L9,9 L9,1 C9,0.44771525 9.44771525,0 10,0 Z" id="path-1"></path>
    </defs>
    <g id="Page-1" stroke="none" stroke-width="1" fill="none" fill-rule="evenodd">
        <g id="Icons" transform="translate(-363.000000, -493.000000)">
            <g id="ICONS/Plus" transform="translate(363.000000, 493.000000)">
                <mask id="mask-2" fill="white">
                    <use xlink:href="#path-1"></use>
                </mask>
                <use id="Combined-Shape" fill="#0F283D" fill-rule="nonzero" xlink:href="#path-1"></use>
                <g id="COLOR/-Tederic-Red" mask="url(#mask-2)" fill="#0F283D">
                    <g transform="translate(-2.000000, -2.000000)" id="Rectangle">
                        <rect x="0" y="0" width="24" height="24"></rect>
                    </g>
                </g>
            </g>
        </g>
    </g>
</svg>