<?xml version="1.0" encoding="UTF-8"?>
<svg width="32px" height="32px" viewBox="0 0 32 32" version="1.1" xmlns="http://www.w3.org/2000/svg" xmlns:xlink="http://www.w3.org/1999/xlink">
    <title>A0D75FB9-2B45-459C-B47B-96DA3F647E93</title>
    <g id="Design---Main" stroke="none" stroke-width="1" fill="none" fill-rule="evenodd">
        <g id="01-Home" transform="translate(-1563.000000, -66.000000)">
            <g id="Main-Menu" transform="translate(955.000000, 66.000000)">
                <g id="Tederic-Icons/NEGATIVE/32/Search" transform="translate(608.000000, 0.000000)">
                    <rect id="Background" x="0" y="0" width="32" height="32"></rect>
                    <path d="M13.5,0 C20.9558441,0 27,6.04415588 27,13.5 C27,16.861466 25.7714313,19.9359844 23.7388235,22.2990255 L31.6986959,30.2803815 C31.8910545,30.4685161 32,30.7255403 32,30.992584 C32,31.2596277 31.8910545,31.5166949 31.6986959,31.7047866 C31.2999291,32.0983256 30.6530804,32.0983256 30.2547319,31.7052596 L22.3050072,23.7336752 C19.941174,25.7693566 16.8643031,27 13.5,27 C6.04415588,27 0,20.9558441 0,13.5 C0,6.04415588 6.04415588,0 13.5,0 Z M13.5,2 C7.14872538,2 2,7.14872538 2,13.5 C2,19.8512746 7.14872538,25 13.5,25 C19.8512746,25 25,19.8512746 25,13.5 C25,7.14872538 19.8512746,2 13.5,2 Z" id="Combined-Shape" fill="#0F283D" fill-rule="nonzero"></path>
                    <path d="M21.7150044,8.23416077 C22.0409885,8.63867844 21.9830014,9.23136628 21.5833589,9.56375473 C21.407829,9.71113997 21.1852812,9.7864 20.9564664,9.7769915 C20.6759316,9.77542368 20.4110599,9.6515581 20.2292712,9.43832134 C18.7654922,7.65560176 16.5807368,6.62235172 14.2736921,6.62235172 C13.7549261,6.62235172 13.3333333,6.20057441 13.3333333,5.68158121 C13.3333333,5.162588 13.7549261,4.7408107 14.2736921,4.7408107 C17.1527034,4.72983517 19.8842295,6.01083884 21.7149562,8.23412063 L21.7150044,8.23416077 Z" id="Path" fill="#E8412D" fill-rule="nonzero"></path>
                </g>
            </g>
        </g>
    </g>
</svg>