<?xml version="1.0" encoding="UTF-8"?>
<svg width="22px" height="13px" viewBox="0 0 22 13" version="1.1" xmlns="http://www.w3.org/2000/svg" xmlns:xlink="http://www.w3.org/1999/xlink">
    <title>5ECC87EF-4D6C-49F3-94CA-922D243D1158</title>
    <defs>
        <path d="M11,-9.76996262e-15 C19.5525,-9.76996262e-15 21.8441667,5.84833333 21.945,6.09583333 C22.0183951,6.30342592 22.0183951,6.52990741 21.945,6.7375 C21.8441667,6.985 19.5525,12.8333333 11,12.8333333 C2.4475,12.8333333 0.155833333,6.985 0.055,6.7375 C-0.0183950633,6.52990741 -0.0183950633,6.30342592 0.055,6.09583333 C0.155833333,5.84833333 2.4475,-9.76996262e-15 11,-9.76996262e-15 Z M11,1.83333333 C8.4686949,1.83333333 6.41666667,3.88536156 6.41666667,6.41666667 C6.41666667,8.94797177 8.4686949,11 11,11 C13.5313051,11 15.5833333,8.94797177 15.5833333,6.41666667 C15.5833333,5.20109109 15.1004478,4.03530232 14.2409061,3.17576059 C13.4386671,2.37352163 12.369653,1.8993921 11.2423753,1.83974033 L11,1.83333333 L11,1.83333333 Z M16.4135341,2.97165554 L16.4666288,3.05495056 C17.069102,4.0325737 17.4166667,5.18403114 17.4166667,6.41666667 C17.4166667,7.6846298 17.0488939,8.86669501 16.4142017,9.86200891 C18.6794161,8.74580214 19.7177249,7.1139294 20.075,6.41666667 C19.7177249,5.71940394 18.6794161,4.08753119 16.4135341,2.97165554 Z M5.58579825,2.97132442 L5.57365881,2.97797456 C3.31666987,4.0936832 2.28160131,5.72071895 1.925,6.41666667 C2.28217145,7.10796626 3.31998142,8.74057442 5.58449386,9.85832057 C4.95011912,8.86352046 4.58333333,7.68292727 4.58333333,6.41666667 C4.58333333,5.14870353 4.95110609,3.96663833 5.58579825,2.97132442 Z" id="path-1"></path>
    </defs>
    <g id="Page-1" stroke="none" stroke-width="1" fill="none" fill-rule="evenodd">
        <g id="Icons" transform="translate(-494.000000, -452.000000)">
            <g id="ICONS/Visitors" transform="translate(494.000000, 452.000000)">
                <mask id="mask-2" fill="white">
                    <use xlink:href="#path-1"></use>
                </mask>
                <use id="Combined-Shape" fill="#0F283D" fill-rule="nonzero" xlink:href="#path-1"></use>
                <g id="COLOR/-Tederic-Red" mask="url(#mask-2)" fill="#0F283D">
                    <g transform="translate(-1.000000, -5.000000)" id="Rectangle">
                        <rect x="0" y="0" width="24" height="24"></rect>
                    </g>
                </g>
            </g>
        </g>
    </g>
</svg>