<?xml version="1.0" encoding="UTF-8"?>
<svg width="167px" height="40px" viewBox="0 0 167 40" version="1.1" xmlns="http://www.w3.org/2000/svg" xmlns:xlink="http://www.w3.org/1999/xlink">
    <title>37571393-716A-4B93-85A6-7F8FFE31562E</title>
    <defs>
        <rect id="path-1" x="0" y="0" width="167" height="40"></rect>
    </defs>
    <g id="Design---Main" stroke="none" stroke-width="1" fill="none" fill-rule="evenodd">
        <g id="02-Company" transform="translate(-80.000000, -66.000000)">
            <g id="LOGO/Logo_White_no_claim" transform="translate(80.000000, 66.000000)">
                <mask id="mask-2" fill="white">
                    <use xlink:href="#path-1"></use>
                </mask>
                <g id="Background"></g>
                <g id="TEDERIC_LOGO_RGB_NEGATIVE" mask="url(#mask-2)" fill-rule="nonzero">
                    <g transform="translate(0.000000, -0.000000)">
                        <path d="M135.849133,0 C134.023756,0 132.797756,0.325588279 132.14389,0.94963248 C131.490023,1.57367668 131.16309,2.57757387 131.16309,3.90705935 C131.16309,5.31794189 131.490023,6.32183908 132.14389,6.94588328 C132.797756,7.56992748 134.023756,7.8683834 135.849133,7.8683834 C137.647266,7.8683834 138.846021,7.56992748 139.499887,6.94588328 C140.153753,6.32183908 140.480687,5.31794189 140.480687,3.90705935 C140.480687,2.57757387 140.153753,1.57367668 139.499887,0.94963248 C138.873265,0.325588279 137.647266,0 135.849133,0 Z" id="Path" fill="#E8412D"></path>
                        <path d="M9.06580541,18.2071381 L9.06580541,28.1889994 C9.06580541,29.1091151 9.12165202,29.861937 9.23334523,30.4195829 C9.34503843,31.0051111 9.54050154,31.4512278 9.87558116,31.7858153 C10.1827375,32.1204028 10.6295103,32.3434612 11.160053,32.4828727 C11.7185191,32.5944018 12.4445249,32.6780487 13.3659939,32.6780487 C13.6452269,32.6780487 14.0361531,32.6780487 14.5387726,32.6780487 C15.041392,32.6780487 15.5440114,32.6780487 16.0466308,32.6780487 C16.5492503,32.6780487 17.0239464,32.6780487 17.4707192,32.6501664 C17.9174921,32.6222841 18.2246484,32.6222841 18.3921882,32.6222841 L17.1356396,39.2303878 C16.9680998,39.2303878 16.6609435,39.2303878 16.2700173,39.2303878 C15.8511677,39.2303878 15.4043949,39.2303878 14.9296988,39.2582701 C14.4270793,39.2861524 13.9523832,39.2861524 13.4776871,39.2861524 C13.002991,39.2861524 12.6120647,39.2861524 12.3328317,39.2861524 C9.95935107,39.2861524 8.03264325,39.1188587 6.52478496,38.7842711 C5.01692666,38.4496836 3.81622469,37.8641554 2.95060234,37.0555689 C2.08497998,36.2191001 1.49859065,35.1038083 1.19143433,33.7096936 C0.884278008,32.3155789 0.716738197,30.5311121 0.716738197,28.3841754 L0.716738197,5.2418713 L9.12165202,4.01505036 L9.12165202,11.6269167 L18.7551911,11.6269167 L17.4986425,18.2350204 L9.06580541,18.2350204 L9.06580541,18.2071381 Z M43.8023928,13.5507949 C45.7011773,15.3910264 46.6505695,17.9840797 46.6505695,21.2741904 L46.6505695,22.3894822 C46.6505695,23.5605385 46.5667996,24.5085365 46.4271831,25.2334762 C46.2875666,25.9862981 46.0362569,26.5718263 45.673254,27.017943 C45.3102511,27.4640597 44.8076316,27.7986473 44.2212423,27.965941 C43.634853,28.1332348 42.8809238,28.2168817 41.9873782,28.2168817 L29.5335856,28.2168817 C29.5615089,29.1369974 29.6732021,29.861937 29.8128186,30.4474652 C29.9803584,31.0051111 30.2595914,31.4791101 30.6505177,31.8136976 C31.0414439,32.1761674 31.5999099,32.3992258 32.2700692,32.5386373 C32.9402284,32.6501664 33.7779274,32.7338133 34.8110896,32.7338133 C36.2631013,32.7338133 37.8268062,32.7338133 39.5022043,32.7338133 C41.1776024,32.7338133 43.0484636,32.705931 45.1427112,32.6780487 L43.914086,39.2303878 C42.154918,39.3140347 40.5074432,39.341917 38.9995849,39.341917 C37.4917266,39.341917 35.8163285,39.341917 34.0292372,39.341917 C31.51614,39.341917 29.4498157,39.0909764 27.8023409,38.5890951 C26.1548661,38.0872138 24.8145476,37.3065096 23.837232,36.2748647 C22.8599165,35.2432198 22.1618339,33.932752 21.7429844,32.3713435 C21.3241349,30.809935 21.1286718,28.9697036 21.1286718,26.8506493 L21.1286718,23.9230084 C21.1286718,21.6924248 21.3520582,19.7685465 21.798831,18.1513735 C22.2456038,16.5063181 22.9716097,15.1400857 24.0326951,14.0526762 C25.0658573,12.9652668 26.4340991,12.1566802 28.1094972,11.5990344 C29.7848953,11.0413885 31.8512196,10.7904478 34.3363935,10.7904478 C38.7203519,10.7625655 41.9036082,11.6826812 43.8023928,13.5507949 Z M38.6924286,22.4452468 C38.6924286,21.329955 38.6365819,20.4098393 38.4969654,19.712782 C38.3852722,19.0157246 38.1339625,18.4580787 37.7709596,18.0398443 C37.4079567,17.6494922 36.9611838,17.342787 36.3747945,17.2033755 C35.7884052,17.0360817 35.034476,16.9524348 34.0850838,16.9524348 C33.1356915,16.9524348 32.3538391,17.0360817 31.795373,17.2033755 C31.2089837,17.3706692 30.7622109,17.6494922 30.4271312,18.0398443 C30.0920516,18.4580787 29.8686652,18.9878423 29.7290487,19.712782 C29.6173555,20.4098393 29.5335856,21.329955 29.5335856,22.4452468 L38.6924286,22.4452468 Z M70.943842,39.2303878 L63.3207807,39.2303878 C60.7239136,39.2303878 58.5458961,39.0073295 56.8425747,38.5612128 C55.1392533,38.1150961 53.7710115,37.3901564 52.709926,36.3585116 C51.6767639,35.3268667 50.950758,34.0163988 50.5039852,32.3713435 C50.0851357,30.7262881 49.8617492,28.718763 49.8617492,26.3208857 L49.8617492,23.8951261 C49.8617492,21.4972488 50.113059,19.4618413 50.5877551,17.7889037 C51.0624512,16.115966 51.7884571,14.7497336 52.7936959,13.7180887 C53.7710115,12.6864438 55.0275601,11.9336219 56.5633417,11.4596229 C58.0991233,10.9856239 59.9141379,10.7346832 61.9804622,10.7346832 C63.3207807,10.7346832 64.5773293,10.8740947 65.7501079,11.1529177 C66.9228866,11.4317406 67.8443556,11.8220927 68.5145148,12.323974 L68.5145148,0 L76.9194286,0 L76.9194286,33.7933405 C76.9194286,35.828748 76.4726558,37.250745 75.5791101,38.0314492 C74.7134878,38.8400357 73.1497829,39.2303878 70.943842,39.2303878 Z M68.5703614,22.8077166 C68.5703614,21.6924248 68.4865915,20.7723091 68.3190517,20.0752518 C68.1515119,19.3781944 67.8722789,18.8205485 67.4813526,18.4023141 C67.0625031,18.011962 66.5598837,17.7331391 65.8897244,17.5937276 C65.2474885,17.4543161 64.4097894,17.3706692 63.4324739,17.3706692 C62.3993117,17.3706692 61.5616127,17.4543161 60.9193767,17.6216099 C60.2771408,17.7889037 59.7465981,18.1234912 59.3835951,18.5696079 C59.0205922,19.0157246 58.7692825,19.6570174 58.629666,20.4656039 C58.4900495,21.2741904 58.4062796,22.3337176 58.4062796,23.6441854 L58.4062796,26.1814742 C58.4062796,27.5477066 58.4900495,28.6629984 58.629666,29.4715849 C58.7692825,30.3080537 59.0205922,30.9493465 59.3835951,31.4233455 C59.7465981,31.8973445 60.2771408,32.2040497 60.9473,32.3713435 C61.6174593,32.5386373 62.4551583,32.6222841 63.4883205,32.6222841 L68.5703614,32.6222841 L68.5703614,22.8077166 L68.5703614,22.8077166 Z M104.005031,13.5507949 C105.903816,15.3910264 106.853208,17.9840797 106.853208,21.2741904 L106.853208,22.3894822 C106.853208,23.5605385 106.769438,24.5085365 106.629822,25.2334762 C106.490205,25.9862981 106.238895,26.5718263 105.875893,27.017943 C105.51289,27.4640597 105.01027,27.7986473 104.423881,27.965941 C103.837491,28.1332348 103.083562,28.2168817 102.190017,28.2168817 L89.7083008,28.2168817 C89.7362241,29.1369974 89.8479173,29.861937 89.9875338,30.4474652 C90.1550736,31.0051111 90.4343067,31.4791101 90.8252329,31.8136976 C91.2161591,32.1761674 91.7746251,32.3992258 92.4447844,32.5386373 C93.1149436,32.6501664 93.9526427,32.7338133 94.9858048,32.7338133 C96.4378165,32.7338133 98.0015214,32.7338133 99.6769195,32.7338133 C101.352318,32.7338133 103.223179,32.705931 105.317426,32.6780487 L104.088801,39.2303878 C102.329633,39.3140347 100.682158,39.341917 99.1743001,39.341917 C97.6664418,39.341917 95.9910437,39.341917 94.2039524,39.341917 C91.6908552,39.341917 89.6245309,39.0909764 87.9770561,38.5890951 C86.3295813,38.0872138 84.9892628,37.3065096 84.0119473,36.2748647 C83.0346317,35.2432198 82.3365492,33.932752 81.9176996,32.3713435 C81.4988501,30.809935 81.303387,28.9697036 81.303387,26.8506493 L81.303387,23.9230084 C81.303387,21.6924248 81.5267734,19.7685465 81.9735462,18.1513735 C82.4203191,16.5063181 83.1463249,15.1400857 84.2074104,14.0526762 C85.2405725,12.9652668 86.6088143,12.1566802 88.2842124,11.5990344 C89.9596105,11.0413885 92.0259349,10.7904478 94.5111087,10.7904478 C98.9229904,10.7625655 102.106247,11.6826812 104.005031,13.5507949 Z M98.8671438,22.4452468 C98.8671438,21.329955 98.8112972,20.4098393 98.6716807,19.712782 C98.5599875,19.0157246 98.3086777,18.4580787 97.9456748,18.0398443 C97.5826719,17.6494922 97.1358991,17.342787 96.5495097,17.2033755 C95.9631204,17.0360817 95.2091913,16.9524348 94.259799,16.9524348 C93.3104067,16.9524348 92.5285543,17.0360817 91.9700883,17.2033755 C91.3836989,17.3706692 90.9369261,17.6494922 90.6018465,18.0398443 C90.2667668,18.4580787 90.0433804,18.9878423 89.9037639,19.712782 C89.7920707,20.4098393 89.7083008,21.329955 89.7083008,22.4452468 L98.8671438,22.4452468 Z M129.554852,11.5711521 C128.298304,11.4875052 127.153448,11.4596229 126.204056,11.4596229 C125.226741,11.4596229 124.249425,11.4596229 123.216263,11.4596229 C121.233708,11.4596229 119.502464,11.6269167 117.994605,11.9615042 C116.486747,12.2960917 115.258122,12.8816199 114.252883,13.6902064 C113.247644,14.498793 112.493715,15.5862024 112.019019,16.9245525 C111.516399,18.2629027 111.26509,19.907958 111.26509,21.8876009 L111.26509,39.2582701 L119.670004,39.2582701 L119.670004,22.751952 C119.670004,21.9712478 119.72585,21.3020727 119.80962,20.7165445 C119.89339,20.1310164 120.088853,19.6570174 120.423933,19.3224298 C120.731089,18.95996 121.177862,18.7090194 121.764251,18.5417256 C122.350641,18.3744318 123.10457,18.290785 124.053962,18.290785 C124.863738,18.290785 125.701437,18.290785 126.539136,18.3186672 C127.376835,18.3465495 127.963224,18.3744318 128.298304,18.4023141 L129.554852,11.5711521 Z M140.44494,11.6269167 L132.040026,11.6269167 L132.040026,39.2582701 L140.44494,39.2582701 L140.44494,11.6269167 Z M163.062814,32.7338133 C161.890036,32.7338133 160.521794,32.7338133 159.013936,32.7338133 C157.95285,32.7338133 157.087228,32.6501664 156.361222,32.510755 C155.663139,32.3713435 155.104673,32.0925205 154.657901,31.6742861 C154.211128,31.2560517 153.931895,30.6426413 153.792278,29.8898193 C153.624738,29.1091151 153.540969,28.1053525 153.540969,26.822767 L153.540969,24.0345375 C153.540969,22.7798343 153.624738,21.7481894 153.792278,20.9674852 C153.959818,20.186781 154.239051,19.6012528 154.629977,19.1830184 C155.020904,18.764784 155.57937,18.485961 156.305375,18.3465495 C157.003458,18.2071381 157.897004,18.1234912 159.013936,18.1234912 C159.767865,18.1234912 160.410101,18.1234912 160.940644,18.1234912 C161.49911,18.1234912 162.001729,18.1234912 162.504348,18.1513735 C163.006968,18.1792558 163.481664,18.1792558 163.984283,18.2071381 C164.486903,18.2350204 165.017446,18.2629027 165.631758,18.290785 L166.888307,11.6269167 C164.877829,11.5432698 163.258278,11.5153875 162.001729,11.5153875 C160.74518,11.5153875 159.656172,11.5153875 158.706779,11.5153875 C156.193682,11.5153875 154.099435,11.7384458 152.36819,12.2124448 C150.636945,12.6585615 149.24078,13.4113835 148.123848,14.4151461 C147.034839,15.4189087 146.252987,16.7014942 145.778291,18.290785 C145.303595,19.8800757 145.052285,21.803954 145.052285,24.0345375 L145.052285,26.822767 C145.052285,29.1091151 145.275671,31.0608757 145.750367,32.6222841 C146.19714,34.2115749 146.978993,35.4941604 148.040078,36.4700407 C149.129087,37.445921 150.525252,38.1708607 152.28442,38.6448597 C154.043588,39.0909764 156.193682,39.341917 158.818473,39.341917 C159.600325,39.341917 160.577641,39.341917 161.806266,39.3140347 C163.034891,39.2861524 164.347286,39.2582701 165.743451,39.2303878 L167,32.6222841 C165.547988,32.705931 164.235593,32.7338133 163.062814,32.7338133 Z" id="Shape" fill="#FFFFFF"></path>
                    </g>
                </g>
            </g>
        </g>
    </g>
</svg>